<?xml version="1.0"?>
<svg xmlns="http://www.w3.org/2000/svg" viewBox="0 0 64 64" width="512" height="512"><g id="low_temperature" data-name="low temperature"><path d="M47,3A14,14,0,1,1,33,17,14,14,0,0,1,47,3Zm0,23,7-8H50V7H44V18H40Z" style="fill:#898890"/><polygon points="54 18 47 26 40 18 44 18 44 7 50 7 50 18 54 18" style="fill:#57a4ff"/><path d="M28,40.79a11,11,0,1,1-12,0V9A6,6,0,0,1,28,9ZM29,50a6.967,6.967,0,0,0-3.19-5.86L24,42.95V9a2,2,0,0,0-4,0V42.95l-1.81,1.19A7,7,0,1,0,29,50Z" style="fill:#898890"/><path d="M25.81,44.14a7,7,0,1,1-7.62,0L20,42.95V9a2,2,0,0,1,4,0V42.95Z" style="fill:#57a4ff"/><path d="M29,40.261V9A7,7,0,0,0,15,9V40.261a12,12,0,1,0,14,0ZM22,60a10,10,0,0,1-5.453-18.375A1,1,0,0,0,17,40.787V9A5,5,0,0,1,27,9V40.787a1,1,0,0,0,.453.838A10,10,0,0,1,22,60Z"/><path d="M26.36,43.3,25,42.412V9a3,3,0,0,0-6,0V42.412l-1.36.887a8,8,0,1,0,8.72,0ZM22,56a6,6,0,0,1-3.267-11.025l1.814-1.184A1,1,0,0,0,21,42.953V9a1,1,0,0,1,2,0V42.953a1,1,0,0,0,.453.838l1.814,1.184A6,6,0,0,1,22,56Z"/><path d="M47,2A15,15,0,1,0,62,17,15.017,15.017,0,0,0,47,2Zm0,28A13,13,0,1,1,60,17,13.015,13.015,0,0,1,47,30Z"/><path d="M54,17H51V7a1,1,0,0,0-1-1H44a1,1,0,0,0-1,1V17H40a1,1,0,0,0-.753,1.658l7,8a1,1,0,0,0,1.506,0l7-8A1,1,0,0,0,54,17Zm-7,7.481L42.2,19H44a1,1,0,0,0,1-1V8h4V18a1,1,0,0,0,1,1h1.8Z"/></g></svg>
